PathFileType	4	(X/Y/Z)	Kaydara	
DataRate	CameraRate	NumFrames	NumMarkers	Units	OrigDataRate	OrigDataStartFrame	OrigNumFrames	
60.00	60.00	4	74	mm	60.00	502	200	
Frame#	Time	Z_lasi			Z_rasi			Z_rpsi			Z_lpsi			Z_fneck			Z_bneck			Z_fhead			Z_rhead			Z_lhead			Z_rshld			Z_relbtop			Z_relbext			Z_relblow			Z_rwrext			Z_rwrtop			Z_rwrlow			Z_lshld			Z_lelbext			Z_lelblow			Z_lelbtop			Z_lwrext			Z_lwrtop			Z_lwrlow			Z_rtopleg			Z_ltopleg			Z_rkneefr			Z_rkneebk			Z_rkneeis			Z_lkneefr			Z_lknssbk			Z_lkneeis			Z_rankfr			Z_rankis			Z_rankbk			Z_lankfr			Z_lankbk			Z_lankis			A_lasi			A_rasi			A_rpsi			A_lpsi			A_fneck			A_bneck			A_fhead			A_rhead			A_lhead			A_rshld			A_relbtop			A_relbext			A_relblow			A_rwrext			A_rwrtop			A_rwrlow			A_lshld			A_lelbext			A_lelblow			A_lelbtop			A_lwrext			A_lwrtop			A_lwrlow			A_rtopleg			A_ltopleg			A_rkneefr			A_rkneebk			A_rkneeis			A_lkneefr			A_lknssbk			A_lkneeis			A_rankfr			A_rankis			A_rankbk			A_lankfr			A_lankbk			A_lankis			
		X1	Y1	Z1	X2	Y2	Z2	X3	Y3	Z3	X4	Y4	Z4	X5	Y5	Z5	X6	Y6	Z6	X7	Y7	Z7	X8	Y8	Z8	X9	Y9	Z9	X10	Y10	Z10	X11	Y11	Z11	X12	Y12	Z12	X13	Y13	Z13	X14	Y14	Z14	X15	Y15	Z15	X16	Y16	Z16	X17	Y17	Z17	X18	Y18	Z18	X19	Y19	Z19	X20	Y20	Z20	X21	Y21	Z21	X22	Y22	Z22	X23	Y23	Z23	X24	Y24	Z24	X25	Y25	Z25	X26	Y26	Z26	X27	Y27	Z27	X28	Y28	Z28	X29	Y29	Z29	X30	Y30	Z30	X31	Y31	Z31	X32	Y32	Z32	X33	Y33	Z33	X34	Y34	Z34	X35	Y35	Z35	X36	Y36	Z36	X37	Y37	Z37	X38	Y38	Z38	X39	Y39	Z39	X40	Y40	Z40	X41	Y41	Z41	X42	Y42	Z42	X43	Y43	Z43	X44	Y44	Z44	X45	Y45	Z45	X46	Y46	Z46	X47	Y47	Z47	X48	Y48	Z48	X49	Y49	Z49	X50	Y50	Z50	X51	Y51	Z51	X52	Y52	Z52	X53	Y53	Z53	X54	Y54	Z54	X55	Y55	Z55	X56	Y56	Z56	X57	Y57	Z57	X58	Y58	Z58	X59	Y59	Z59	X60	Y60	Z60	X61	Y61	Z61	X62	Y62	Z62	X63	Y63	Z63	X64	Y64	Z64	X65	Y65	Z65	X66	Y66	Z66	X67	Y67	Z67	X68	Y68	Z68	X69	Y69	Z69	X70	Y70	Z70	X71	Y71	Z71	X72	Y72	Z72	X73	Y73	Z73	X74	Y74	Z74	

1	8.350	-283.90860	1080.43518	674.56352	-326.07250	1088.67287	472.15675	-149.91896	1116.33629	398.43323	-94.44266	1101.29837	637.79320	-270.29261	1453.38242	563.50597	-156.60697	1509.08890	557.53788	-337.03598	1669.36737	544.57031	-191.28794	1645.94254	463.63800	-180.85064	1651.89484	611.11805	-221.01833	1439.91486	354.17145	-172.90949	1120.40718	269.61182	-162.30173	1100.78766	326.81103	-245.93901	1133.07091	290.72084	-284.46795	899.21646	246.36642	-322.71912	915.79277	264.96056	-310.40289	909.41963	306.93758	-167.37103	1447.31720	746.24153	-125.34258	1132.31674	752.72316	-184.56568	1155.20447	816.14723	-115.74057	1153.21060	820.54451	-257.59768	901.01700	810.57281	-244.99500	894.45641	855.72617	-199.25407	888.80241	846.66168	-195.54657	927.65312	349.28585	-190.24496	893.67188	713.76938	-257.18204	421.88251	397.67754	-186.63929	452.86335	349.34555	-194.68115	432.30927	472.43496	-219.84938	446.47400	669.38354	-113.58317	474.66778	658.40347	-207.76499	443.61301	577.34184	-207.38874	180.86313	375.08038	-184.51935	176.72682	437.55032	-130.81717	175.85724	368.31432	-154.01074	164.37145	668.54523	-96.33510	166.82261	613.07659	-174.20141	173.67912	598.21796	-975.09422	1031.51024	467.35023	-961.77315	1037.10114	626.54263	-1122.64961	1038.47534	645.83801	-1098.94409	1043.57353	463.68690	-1035.89394	1383.48236	562.90798	-1172.63023	1411.28769	554.51218	-980.10124	1594.64066	577.83798	-1125.04120	1553.31055	660.68420	-1125.93109	1562.17789	497.60357	-1111.44608	1352.52701	741.65810	-1091.28555	1058.74489	768.75832	-1151.42281	1051.92749	744.25293	-1087.37350	1048.77396	710.58273	-1065.81886	811.40457	789.60289	-1022.97493	823.05084	777.91779	-1035.35393	820.54504	736.24855	-1066.34804	1360.39032	383.16658	-1098.30765	1049.11880	361.22124	-1030.47539	1057.27272	385.73189	-1054.81010	1055.29236	337.27768	-1007.91725	827.62772	375.83176	-1007.03400	830.92247	335.75939	-964.39285	841.21262	349.87499	-1069.55849	876.22864	725.74516	-1036.64291	889.59167	387.43263	-1029.60754	452.21928	634.05399	-1134.73335	485.80746	682.30446	-1119.14314	485.38795	563.45314	-1018.41896	464.82151	505.68928	-1100.41695	479.16893	408.38394	-1125.03677	479.71836	532.40177	-1098.03459	165.39703	658.89153	-1133.67828	162.19557	594.04343	-1179.09027	153.37087	664.80530	-1068.38776	166.22419	456.56929	-1128.85872	166.96003	420.20611	-1128.68263	173.37633	509.50504 
2	8.367	-283.56415	1080.42984	674.31519	-325.71133	1088.72269	471.92253	-149.96631	1116.23413	398.56640	-93.97613	1101.17447	637.60773	-269.76736	1453.24066	563.23479	-156.46713	1509.09622	557.38274	-336.90620	1668.81592	543.32630	-190.81287	1645.89539	462.99583	-180.92333	1652.50931	610.37487	-220.53265	1439.84070	353.90110	-172.77393	1120.20554	269.45023	-162.18967	1100.61256	326.61949	-245.78676	1133.01979	290.51382	-284.72940	899.21959	246.30894	-322.99622	915.85159	264.86441	-310.65678	909.51393	306.86443	-166.87847	1447.37686	745.88547	-125.16196	1132.35550	752.49725	-184.44490	1155.32593	815.92682	-115.56990	1153.21632	820.33745	-257.90878	901.29990	810.31906	-245.34908	894.70688	855.36728	-199.47834	888.94676	846.31180	-195.53036	927.61948	349.12605	-190.30998	893.69400	713.51738	-257.22778	421.85791	397.52102	-186.66861	452.84313	349.18201	-195.12394	432.36443	472.54353	-219.96569	446.50074	669.27177	-113.78749	474.72420	658.33031	-207.92524	443.59428	577.21252	-207.37225	180.83683	375.02998	-184.53009	176.71925	437.48550	-130.80734	175.81821	368.25466	-154.04078	164.34408	668.46947	-96.41503	166.83302	613.07995	-174.24837	173.64607	598.14697	-974.77371	1031.63193	467.18636	-961.99066	1037.04506	626.26263	-1122.53738	1038.50121	645.69008	-1098.89000	1043.57468	463.56354	-1035.66727	1383.77533	562.86907	-1172.36107	1410.79056	554.10450	-980.76950	1595.47028	577.81578	-1125.75951	1553.19107	660.34042	-1126.22925	1561.93130	497.18216	-1108.07388	1354.70779	742.26242	-1089.84299	1060.43869	769.24225	-1150.00717	1054.06250	745.09842	-1086.44226	1050.62180	710.79422	-1065.38086	812.95235	789.56337	-1022.43683	824.36813	777.56088	-1034.54239	821.90224	736.26213	-1063.54630	1362.41608	383.57780	-1096.96777	1050.99327	361.17542	-1029.12064	1058.79257	385.70560	-1053.48099	1056.96182	337.18945	-1007.93121	828.48091	375.89062	-1007.01454	832.16492	335.72823	-964.33891	842.20642	349.94469	-1069.54552	876.35361	725.60135	-1036.53114	889.76585	387.33612	-1029.49509	452.22858	634.13074	-1134.58801	485.90919	682.33826	-1119.00864	485.46810	563.48396	-1018.40897	464.82922	505.67936	-1100.32188	479.22916	408.36891	-1124.93912	479.77711	532.39643	-1097.97768	165.46669	658.94142	-1133.55873	162.34379	594.15062	-1179.03458	153.47078	664.84688	-1068.34396	166.29398	456.54980	-1128.82019	167.02213	420.17529	-1128.60275	173.43428	509.48441 
3	8.383	-283.35552	1080.44624	674.19434	-325.13847	1088.84689	471.78638	-149.51524	1116.16112	398.06686	-94.00467	1101.04218	637.53399	-269.34155	1453.11646	562.95113	-156.06567	1509.16656	557.14962	-337.13024	1668.13248	541.83784	-190.44418	1645.87845	462.46155	-181.34031	1653.15720	609.84802	-219.93587	1439.72397	353.60683	-172.63762	1119.98848	269.21638	-162.06633	1100.42946	326.41350	-245.67102	1132.97821	290.37899	-285.02527	899.23508	246.23587	-323.27251	915.94551	264.77781	-310.93353	909.61548	306.79636	-166.25624	1447.44614	745.53955	-124.96368	1132.35077	752.29317	-184.22791	1155.37910	815.73204	-115.44496	1153.19794	820.17731	-258.35075	901.60439	810.02998	-245.74833	894.90685	855.06538	-200.00622	888.97491	846.11259	-195.50499	927.57530	348.97053	-190.39452	893.70728	713.31367	-257.26885	421.85341	397.35161	-186.74339	452.79716	349.06235	-195.21189	432.36675	472.41859	-220.12793	446.46877	669.22592	-113.93394	474.73389	658.21892	-208.05574	443.54012	577.15023	-207.39614	180.80351	374.97826	-184.47163	176.69205	437.42203	-130.80325	175.79994	368.20942	-154.19438	164.37342	668.49190	-96.48117	166.84814	613.05252	-174.30916	173.63922	598.12954	-974.62936	1031.81351	466.87927	-962.00897	1037.22023	626.41785	-1122.52449	1038.68057	645.60928	-1098.82774	1043.67538	463.45058	-1035.69092	1383.99612	562.89703	-1172.23785	1410.14557	553.73695	-981.81587	1596.48376	577.82726	-1126.76216	1553.08716	659.90578	-1126.74591	1561.47781	496.69415	-1103.98735	1357.42142	742.87354	-1087.95807	1062.48634	769.61342	-1148.29201	1056.62193	745.93971	-1085.21477	1052.53845	711.28677	-1065.11375	814.94057	789.58824	-1022.13829	825.87395	777.44057	-1034.18762	823.85612	736.42746	-1060.40489	1364.54575	384.08939	-1095.54268	1052.96165	361.04168	-1027.79137	1060.35881	385.54237	-1052.01653	1058.71086	337.03136	-1007.81151	829.76021	375.81718	-1006.82487	833.63045	335.44868	-964.04411	843.41080	349.86637	-1069.01863	876.51802	725.80772	-1036.21437	889.74907	387.30114	-1029.36913	452.27783	634.20368	-1134.35280	485.98461	682.32430	-1118.77686	485.54367	563.52070	-1018.24203	464.87022	505.61081	-1100.21027	479.28833	408.33519	-1124.80705	479.81255	532.36504	-1097.90916	165.54684	658.97881	-1133.46443	162.41997	594.18388	-1178.95897	153.58773	664.88106	-1068.30460	166.41396	456.50265	-1128.77647	167.07808	420.16178	-1128.51776	173.48921	509.49921 
4	8.400	-282.93110	1080.46028	674.03931	-324.27620	1088.99940	471.56364	-149.25504	1116.09642	398.02837	-93.69041	1100.93796	637.38140	-268.95185	1453.12790	562.58842	-155.19288	1509.27338	556.64509	-337.58278	1667.38647	539.99969	-189.95180	1645.77972	462.10682	-182.30505	1653.85086	609.49997	-219.26413	1439.63425	353.33546	-172.43334	1119.80858	268.96133	-161.91278	1100.20699	326.21449	-245.48893	1132.96364	290.19985	-285.28582	899.26308	246.11296	-323.51704	916.04858	264.67325	-311.28479	909.79828	306.77933	-165.80196	1447.42630	745.36125	-124.85384	1132.25723	752.20482	-184.08134	1155.42686	815.48950	-115.34886	1153.11890	820.05600	-258.77041	901.83945	809.72870	-246.14470	895.07339	854.82468	-200.42461	889.03954	845.86853	-195.45839	927.55745	348.79547	-190.53806	893.72719	713.09906	-257.31256	421.80271	397.14622	-186.74822	452.75600	348.90358	-195.46175	432.40845	472.43732	-220.23674	446.47957	669.20052	-114.15254	474.74133	658.18336	-208.17400	443.50700	577.09541	-207.36252	180.74022	374.89834	-184.46939	176.67133	437.34760	-130.78194	175.76590	368.12683	-154.21926	164.35629	668.41827	-96.49041	166.88004	612.98153	-174.35154	173.62516	598.05424	-974.52980	1032.04865	466.52115	-962.03011	1037.38800	626.29314	-1122.61116	1039.00230	645.50507	-1098.76328	1043.73375	463.17818	-1035.56702	1384.13177	563.04790	-1171.99089	1409.23126	553.42854	-983.00430	1597.50275	577.55043	-1127.77679	1552.94968	659.43932	-1127.35825	1560.70190	496.17233	-1099.57298	1360.63919	743.07648	-1086.39908	1065.10506	769.89853	-1147.00745	1059.75426	746.71593	-1084.69185	1054.78851	711.56364	-1065.05310	817.53418	789.68979	-1021.92390	828.21030	777.51076	-1033.36121	826.79054	736.82236	-1057.38220	1366.95862	384.79126	-1094.07555	1055.28488	360.92796	-1026.33781	1062.18430	385.44971	-1050.55344	1060.79887	336.88541	-1007.52411	831.44073	375.74383	-1006.43318	835.48950	335.01301	-963.72414	845.03235	349.57855	-1068.85773	876.53244	725.69649	-1035.96931	889.73267	387.22485	-1029.19685	452.30225	634.24763	-1134.16267	486.04904	682.27661	-1118.55911	485.57766	563.47775	-1018.08968	464.90852	505.54817	-1100.04990	479.31305	408.29964	-1124.67979	479.88003	532.35046	-1097.81082	165.61987	658.99033	-1133.40485	162.43059	594.22253	-1178.90411	153.67152	664.89235	-1068.20618	166.42395	456.53950	-1128.72635	167.09564	420.14244	-1128.18016	173.34742	509.28581 
